<svg version="1.1" id="Layer_1" xmlns="http://www.w3.org/2000/svg" xmlns:xlink="http://www.w3.org/1999/xlink" x="0px" y="0px"
	 width="100%" viewBox="0 0 687 391" enable-background="new 0 0 687 391" xml:space="preserve">
<path fill="#121212" opacity="1.000000" stroke="none" 
	d="
M453.000000,392.000000 
	C302.034882,392.000000 151.569748,392.000000 1.052316,392.000000 
	C1.052316,261.731781 1.052316,131.463501 1.052316,1.097622 
	C229.881821,1.097622 458.763702,1.097622 687.822754,1.097622 
	C687.822754,131.333145 687.822754,261.666534 687.822754,392.000000 
	C609.796814,392.000000 531.648376,392.000000 453.000000,392.000000 
M211.440399,202.983124 
	C210.435760,203.990555 209.429871,204.996735 208.426666,206.005600 
	C194.217300,220.295120 180.025681,234.602386 165.785294,248.860931 
	C162.752289,251.897797 159.099670,251.478088 157.021225,247.678955 
	C155.980972,245.777527 155.317001,243.436356 155.259277,241.273361 
	C155.052780,233.535812 155.178421,225.789413 155.178421,218.167908 
	C134.476059,218.167908 114.689034,218.167908 93.853188,218.167908 
	C95.710396,222.306839 97.042229,226.012329 98.951569,229.391525 
	C104.631454,239.443924 111.835678,248.191360 120.936455,255.470520 
	C130.006149,262.724823 140.064896,268.177032 151.209518,270.683319 
	C159.657227,272.583160 168.617081,273.058746 177.311005,272.814484 
	C190.967163,272.430817 203.862488,268.357147 215.600082,261.280273 
	C219.272858,259.065857 222.330719,260.026062 225.875916,261.054382 
	C233.151031,263.164612 240.531357,264.912079 249.183701,267.148926 
	C246.731567,257.770538 244.568787,250.036575 242.745026,242.223495 
	C242.130646,239.591507 241.516663,236.440475 242.390610,234.076904 
	C245.064957,226.844223 248.668457,219.961075 251.527451,212.789246 
	C255.320023,203.275497 254.569351,193.346954 253.409180,183.459915 
	C253.302048,182.546951 252.730072,181.650452 252.239059,180.826706 
	C248.680542,174.856705 242.539597,173.566544 236.545410,173.424545 
	C220.232895,173.038116 203.905151,173.312607 187.583542,173.282837 
	C178.780045,173.266785 178.081253,172.516220 178.079575,163.610596 
	C178.078659,158.783234 178.079407,153.955872 178.079407,149.017853 
	C165.910538,160.976395 154.408798,172.279327 141.956833,184.516068 
	C144.889053,184.516068 146.644058,184.510284 148.399048,184.516937 
	C170.547592,184.600967 192.697189,184.607712 214.842926,184.903473 
	C216.890869,184.930817 220.261795,186.443680 220.644119,187.893051 
	C221.272171,190.274017 220.660614,193.632721 219.280670,195.729462 
	C217.517670,198.408157 214.472672,200.243103 211.440399,202.983124 
M218.942200,121.641884 
	C217.804367,120.776840 216.733032,119.802452 215.518402,119.063698 
	C203.721344,111.888672 190.644424,108.341225 177.105286,107.621910 
	C158.255341,106.620453 140.452042,111.021706 124.931091,122.226585 
	C119.523575,126.130379 114.303467,130.663452 110.129700,135.824524 
	C102.903732,144.759811 96.595299,154.185883 93.409706,165.758484 
	C90.384781,176.747452 88.361786,187.488541 91.705223,198.428314 
	C92.607414,201.380295 96.063370,204.662064 99.044205,205.617401 
	C103.944199,207.187805 109.407127,207.366043 114.643745,207.451050 
	C128.303970,207.672760 141.970184,207.525391 155.634003,207.525742 
	C166.679413,207.526031 166.679443,207.526382 166.679779,218.526047 
	C166.679916,222.837845 166.679810,227.149628 166.679810,231.461426 
	C167.156570,231.475464 167.633316,231.489517 168.110077,231.503555 
	C179.552811,220.009003 190.995544,208.514450 202.438278,197.019913 
	C202.165070,196.676025 201.891861,196.332153 201.618652,195.988281 
	C199.794617,195.988281 197.970566,195.988312 196.146530,195.988266 
	C174.651016,195.987762 153.155106,195.920685 131.660309,196.045105 
	C127.559135,196.068848 124.093452,194.493347 122.948166,191.058365 
	C122.377640,189.347260 124.777039,186.127457 126.536385,184.248825 
	C133.695618,176.604172 141.088470,169.176102 148.467560,161.740036 
	C158.418701,151.712051 168.317108,141.624634 178.552277,131.893127 
	C180.117035,130.405380 183.468811,130.072433 185.797806,130.442078 
	C186.843231,130.607986 187.980484,133.791458 188.082153,135.659714 
	C188.443893,142.306854 188.388977,148.977097 188.471542,155.638855 
	C188.552536,162.174408 189.185852,162.844131 195.476288,162.845566 
	C211.972855,162.849289 228.469406,162.846817 244.965973,162.846817 
	C246.590775,162.846817 248.215561,162.846832 250.492279,162.846832 
	C248.422974,154.680435 244.964706,147.799347 239.944321,142.095184 
	C233.644775,134.937683 226.470093,128.550400 218.942200,121.641884 
M507.076111,155.557465 
	C505.748932,160.928223 504.325958,166.277481 503.114746,171.674271 
	C500.664734,182.590820 498.357788,193.539429 495.933136,204.461777 
	C494.975098,208.777527 494.185028,213.170074 492.754150,217.333694 
	C489.020111,228.199188 486.839355,239.278015 487.058838,250.792938 
	C487.171875,256.726074 489.438293,259.032104 495.004486,258.852936 
	C500.424194,258.678497 502.348938,256.527496 501.912506,250.554352 
	C501.576599,245.956924 500.011169,241.298492 500.483490,236.824600 
	C501.429749,227.861450 503.411743,219.008636 504.937988,210.105438 
	C506.330658,201.981476 507.541138,193.822952 509.112549,185.734177 
	C510.051208,180.902512 511.529846,176.175781 513.128052,170.002594 
	C513.944214,172.347549 514.526672,173.329712 514.604431,174.350311 
	C515.462463,185.618484 516.639709,196.881866 516.944702,208.167786 
	C517.347534,223.073105 518.311218,237.854935 523.456726,251.964523 
	C524.313416,254.313721 527.077332,256.891174 529.450256,257.523743 
	C532.252014,258.270630 534.977966,256.308563 535.853210,252.884140 
	C538.514709,242.471146 541.612854,232.154007 543.843323,221.651382 
	C545.755554,212.647293 546.274414,203.343384 548.263672,194.361237 
	C549.277100,189.784988 549.059937,184.173660 554.989868,181.650238 
	C567.069336,176.509872 572.887207,162.938782 571.330627,150.541000 
	C570.642578,145.060364 567.838806,142.613541 562.460999,143.004425 
	C556.252380,143.455704 549.934692,148.100632 547.370117,155.473328 
	C544.745728,163.017960 542.648865,170.746094 540.289368,178.498016 
	C538.081787,178.605179 535.587524,178.726257 533.093201,178.847321 
	C533.611755,180.826035 534.123474,181.494553 534.796631,181.773529 
	C538.567017,183.336075 539.633240,186.048141 538.928223,189.973969 
	C537.615784,197.281509 536.750977,204.672043 535.343079,211.959106 
	C533.783325,220.032074 531.824219,228.027878 530.039001,236.057297 
	C529.541382,236.085220 529.043701,236.113159 528.546082,236.141098 
	C528.082153,235.074356 527.278992,234.030624 527.204895,232.937454 
	C526.035889,215.690384 525.026001,198.432465 523.840088,181.186630 
	C523.090332,170.284485 522.051758,159.402374 521.271118,148.502075 
	C521.058105,145.527740 519.469788,144.970032 516.950378,145.150436 
	C511.065308,145.571869 509.159363,147.539062 507.076111,155.557465 
M393.629211,256.316467 
	C394.763977,249.834534 395.733276,243.318176 397.073242,236.878937 
	C398.970245,227.762619 401.080566,218.688416 403.303497,209.646286 
	C403.490204,208.886780 405.499237,207.793289 406.186523,208.063507 
	C411.341400,210.090164 413.078644,206.236877 415.224731,203.093491 
	C416.011627,201.940964 416.570251,200.632568 417.546753,198.809555 
	C413.997101,197.749924 410.528229,196.714432 406.857758,195.618729 
	C407.639648,193.238297 408.341278,191.104156 409.041687,188.969620 
	C411.921448,180.193512 414.841980,171.430481 417.663177,162.635574 
	C419.096802,158.166260 420.520386,153.678223 421.566864,149.111191 
	C421.825256,147.983597 420.895996,145.676208 419.994263,145.351639 
	C416.565735,144.117661 410.486542,146.775253 408.934753,150.402390 
	C406.914490,155.124390 405.313568,160.062180 403.954468,165.022781 
	C401.452972,174.153046 399.344574,183.390991 396.843658,192.521423 
	C396.479828,193.849686 394.922302,195.746887 393.800476,195.831360 
	C383.906281,196.576340 373.985657,196.970627 362.863647,197.529404 
	C367.576111,179.460403 372.028076,162.390335 376.666382,144.605637 
	C371.114716,145.469254 365.681000,143.553253 363.863434,150.163452 
	C361.259979,159.631897 358.463135,169.050079 356.034302,178.562622 
	C354.404572,184.945450 353.400787,191.487076 351.816864,197.883347 
	C351.437378,199.415726 349.982849,200.766327 348.809204,201.996887 
	C347.235077,203.647339 345.453308,205.099777 343.228729,207.120407 
	C345.816437,207.962997 347.434052,208.489731 349.232269,209.075256 
	C345.220184,225.754135 341.290649,242.089905 337.396271,258.279480 
	C345.162628,261.197205 351.432098,257.723083 352.152008,253.450760 
	C353.026276,248.262695 354.077362,243.103943 354.918976,237.910980 
	C356.373993,228.932983 357.542328,219.902481 359.280487,210.981598 
	C359.620209,209.237930 362.277191,206.429810 363.391724,206.638779 
	C366.665680,207.252716 370.012604,208.689896 372.773132,210.607620 
	C381.900024,216.948013 386.743805,234.503998 383.853241,245.856949 
	C380.889832,257.496063 379.836273,257.724945 393.629211,256.316467 
M476.417175,208.707016 
	C478.110748,198.172760 479.826874,187.642029 481.481995,177.101715 
	C481.892853,174.485229 482.102295,171.837250 482.411041,169.204544 
	C483.098022,163.346237 484.510712,157.461884 484.296356,151.637146 
	C484.027802,144.339630 477.570618,140.545975 470.844971,143.307388 
	C459.254822,148.066116 451.438843,157.015747 445.585480,167.735458 
	C442.561310,173.273880 439.881134,179.038956 437.531006,184.896408 
	C434.860168,191.553253 432.463501,198.350281 430.476105,205.238831 
	C429.424622,208.883301 427.916412,211.260880 424.072327,212.148773 
	C421.235413,212.804016 418.380524,213.732071 415.810883,215.070786 
	C414.096802,215.963776 412.870056,217.792175 411.425232,219.201935 
	C411.728302,219.572662 412.031372,219.943390 412.334442,220.314117 
	C416.247711,220.314117 420.160980,220.314117 425.641815,220.314117 
	C420.022766,233.660706 414.725494,246.242996 409.438354,258.801208 
	C421.800903,257.753204 428.641388,256.381958 431.135834,243.000732 
	C432.565765,235.330078 434.923157,227.814575 437.227692,220.341675 
	C437.624054,219.056442 439.809875,217.563705 441.238678,217.488495 
	C447.213226,217.173950 453.214661,217.323624 459.205444,217.384171 
	C462.221344,217.414627 463.718201,218.991486 463.379639,222.068298 
	C463.179840,223.884674 463.129425,225.763245 462.605774,227.490768 
	C459.253784,238.549179 459.670166,249.768219 461.227386,260.990417 
	C461.634338,263.922974 463.407898,266.143585 467.049133,264.984741 
	C470.615997,263.849579 474.179962,262.705200 476.958954,261.816315 
	C470.090210,242.962982 468.480713,225.267212 485.085571,209.434326 
	C481.478424,209.241409 479.334717,209.126770 476.417175,208.707016 
M307.063751,185.377396 
	C305.372986,182.467194 303.202881,179.731033 302.072327,176.617416 
	C296.422058,161.056473 314.863556,148.634186 325.513672,148.929794 
	C326.453278,148.955872 327.564667,149.680878 328.261963,150.403732 
	C332.009491,154.288757 332.758362,161.826263 330.260620,167.429565 
	C328.606781,171.139740 327.196747,174.958588 325.607208,178.903458 
	C333.958313,179.475189 336.067688,179.158386 338.824402,175.486801 
	C340.405487,173.380997 341.262970,170.625793 342.039520,168.040771 
	C345.086060,157.898819 340.444977,143.775726 326.896179,142.490463 
	C313.947937,141.262161 303.725433,146.017136 295.501282,156.109253 
	C289.236877,163.796478 287.120239,172.544022 290.721832,181.197052 
	C293.905457,188.845886 299.448761,195.591492 304.412567,202.398727 
	C309.606201,209.521164 314.348633,216.538910 314.526886,225.898788 
	C314.703979,235.196442 312.529846,243.195328 304.994263,249.224716 
	C301.591644,251.947189 294.099609,252.377716 292.293274,249.424240 
	C289.144165,244.275345 285.026245,239.222061 288.794159,232.456726 
	C289.657623,230.906372 289.458618,228.764297 289.755249,226.851593 
	C283.137360,226.483734 276.438446,229.371719 274.991180,232.957138 
	C272.600281,238.880280 277.435486,252.072754 282.503571,256.197845 
	C291.069122,263.169586 306.790497,260.256897 313.850952,251.692261 
	C318.592377,245.940720 321.649536,239.627869 323.570282,232.310745 
	C326.270081,222.025681 325.753326,212.289108 320.473450,203.330139 
	C316.826874,197.142532 311.709412,191.821777 307.063751,185.377396 
z"/>
<path fill="#a87de0" opacity="1.000000" stroke="none" 
	d="
M211.710297,202.712402 
	C214.472672,200.243103 217.517670,198.408157 219.280670,195.729462 
	C220.660614,193.632721 221.272171,190.274017 220.644119,187.893051 
	C220.261795,186.443680 216.890869,184.930817 214.842926,184.903473 
	C192.697189,184.607712 170.547592,184.600967 148.399048,184.516937 
	C146.644058,184.510284 144.889053,184.516068 141.956833,184.516068 
	C154.408798,172.279327 165.910538,160.976395 178.079407,149.017853 
	C178.079407,153.955872 178.078659,158.783234 178.079575,163.610596 
	C178.081253,172.516220 178.780045,173.266785 187.583542,173.282837 
	C203.905151,173.312607 220.232895,173.038116 236.545410,173.424545 
	C242.539597,173.566544 248.680542,174.856705 252.239059,180.826706 
	C252.730072,181.650452 253.302048,182.546951 253.409180,183.459915 
	C254.569351,193.346954 255.320023,203.275497 251.527451,212.789246 
	C248.668457,219.961075 245.064957,226.844223 242.390610,234.076904 
	C241.516663,236.440475 242.130646,239.591507 242.745026,242.223495 
	C244.568787,250.036575 246.731567,257.770538 249.183701,267.148926 
	C240.531357,264.912079 233.151031,263.164612 225.875916,261.054382 
	C222.330719,260.026062 219.272858,259.065857 215.600082,261.280273 
	C203.862488,268.357147 190.967163,272.430817 177.311005,272.814484 
	C168.617081,273.058746 159.657227,272.583160 151.209518,270.683319 
	C140.064896,268.177032 130.006149,262.724823 120.936455,255.470520 
	C111.835678,248.191360 104.631454,239.443924 98.951569,229.391525 
	C97.042229,226.012329 95.710396,222.306839 93.853188,218.167908 
	C114.689034,218.167908 134.476059,218.167908 155.178421,218.167908 
	C155.178421,225.789413 155.052780,233.535812 155.259277,241.273361 
	C155.317001,243.436356 155.980972,245.777527 157.021225,247.678955 
	C159.099670,251.478088 162.752289,251.897797 165.785294,248.860931 
	C180.025681,234.602386 194.217300,220.295120 208.426666,206.005600 
	C209.429871,204.996735 210.435760,203.990555 211.710297,202.712402 
z"/>
<path fill="#a87de0" opacity="1.000000" stroke="none" 
	d="
M219.307648,121.736298 
	C226.470093,128.550400 233.644775,134.937683 239.944321,142.095184 
	C244.964706,147.799347 248.422974,154.680435 250.492279,162.846832 
	C248.215561,162.846832 246.590775,162.846817 244.965973,162.846817 
	C228.469406,162.846817 211.972855,162.849289 195.476288,162.845566 
	C189.185852,162.844131 188.552536,162.174408 188.471542,155.638855 
	C188.388977,148.977097 188.443893,142.306854 188.082153,135.659714 
	C187.980484,133.791458 186.843231,130.607986 185.797806,130.442078 
	C183.468811,130.072433 180.117035,130.405380 178.552277,131.893127 
	C168.317108,141.624634 158.418701,151.712051 148.467560,161.740036 
	C141.088470,169.176102 133.695618,176.604172 126.536385,184.248825 
	C124.777039,186.127457 122.377640,189.347260 122.948166,191.058365 
	C124.093452,194.493347 127.559135,196.068848 131.660309,196.045105 
	C153.155106,195.920685 174.651016,195.987762 196.146530,195.988266 
	C197.970566,195.988312 199.794617,195.988281 201.618652,195.988281 
	C201.891861,196.332153 202.165070,196.676025 202.438278,197.019913 
	C190.995544,208.514450 179.552811,220.009003 168.110077,231.503555 
	C167.633316,231.489517 167.156570,231.475464 166.679810,231.461426 
	C166.679810,227.149628 166.679916,222.837845 166.679779,218.526047 
	C166.679443,207.526382 166.679413,207.526031 155.634003,207.525742 
	C141.970184,207.525391 128.303970,207.672760 114.643745,207.451050 
	C109.407127,207.366043 103.944199,207.187805 99.044205,205.617401 
	C96.063370,204.662064 92.607414,201.380295 91.705223,198.428314 
	C88.361786,187.488541 90.384781,176.747452 93.409706,165.758484 
	C96.595299,154.185883 102.903732,144.759811 110.129700,135.824524 
	C114.303467,130.663452 119.523575,126.130379 124.931091,122.226585 
	C140.452042,111.021706 158.255341,106.620453 177.105286,107.621910 
	C190.644424,108.341225 203.721344,111.888672 215.518402,119.063698 
	C216.733032,119.802452 217.804367,120.776840 219.307648,121.736298 
z"/>
<path fill="white" opacity="1.000000" stroke="none" 
	d="
M507.354767,155.263794 
	C509.159363,147.539062 511.065308,145.571869 516.950378,145.150436 
	C519.469788,144.970032 521.058105,145.527740 521.271118,148.502075 
	C522.051758,159.402374 523.090332,170.284485 523.840088,181.186630 
	C525.026001,198.432465 526.035889,215.690384 527.204895,232.937454 
	C527.278992,234.030624 528.082153,235.074356 528.546082,236.141098 
	C529.043701,236.113159 529.541382,236.085220 530.039001,236.057297 
	C531.824219,228.027878 533.783325,220.032074 535.343079,211.959106 
	C536.750977,204.672043 537.615784,197.281509 538.928223,189.973969 
	C539.633240,186.048141 538.567017,183.336075 534.796631,181.773529 
	C534.123474,181.494553 533.611755,180.826035 533.093201,178.847321 
	C535.587524,178.726257 538.081787,178.605179 540.289368,178.498016 
	C542.648865,170.746094 544.745728,163.017960 547.370117,155.473328 
	C549.934692,148.100632 556.252380,143.455704 562.460999,143.004425 
	C567.838806,142.613541 570.642578,145.060364 571.330627,150.541000 
	C572.887207,162.938782 567.069336,176.509872 554.989868,181.650238 
	C549.059937,184.173660 549.277100,189.784988 548.263672,194.361237 
	C546.274414,203.343384 545.755554,212.647293 543.843323,221.651382 
	C541.612854,232.154007 538.514709,242.471146 535.853210,252.884140 
	C534.977966,256.308563 532.252014,258.270630 529.450256,257.523743 
	C527.077332,256.891174 524.313416,254.313721 523.456726,251.964523 
	C518.311218,237.854935 517.347534,223.073105 516.944702,208.167786 
	C516.639709,196.881866 515.462463,185.618484 514.604431,174.350311 
	C514.526672,173.329712 513.944214,172.347549 513.128052,170.002594 
	C511.529846,176.175781 510.051208,180.902512 509.112549,185.734177 
	C507.541138,193.822952 506.330658,201.981476 504.937988,210.105438 
	C503.411743,219.008636 501.429749,227.861450 500.483490,236.824600 
	C500.011169,241.298492 501.576599,245.956924 501.912506,250.554352 
	C502.348938,256.527496 500.424194,258.678497 495.004486,258.852936 
	C489.438293,259.032104 487.171875,256.726074 487.058838,250.792938 
	C486.839355,239.278015 489.020111,228.199188 492.754150,217.333694 
	C494.185028,213.170074 494.975098,208.777527 495.933136,204.461777 
	C498.357788,193.539429 500.664734,182.590820 503.114746,171.674271 
	C504.325958,166.277481 505.748932,160.928223 507.354767,155.263794 
M553.852600,168.370834 
	C553.498474,170.495117 553.144409,172.619415 552.613464,175.804871 
	C561.007019,170.300446 564.764038,163.485977 565.620056,154.981659 
	C565.714417,154.043976 564.856934,153.010483 564.440979,152.021439 
	C563.538696,152.508041 562.594727,152.931259 561.740906,153.491669 
	C556.687805,156.808411 556.007141,162.575455 553.852600,168.370834 
z"/>
<path fill="white" opacity="1.000000" stroke="none" 
	d="
M393.230042,256.501404 
	C379.836273,257.724945 380.889832,257.496063 383.853241,245.856949 
	C386.743805,234.503998 381.900024,216.948013 372.773132,210.607620 
	C370.012604,208.689896 366.665680,207.252716 363.391724,206.638779 
	C362.277191,206.429810 359.620209,209.237930 359.280487,210.981598 
	C357.542328,219.902481 356.373993,228.932983 354.918976,237.910980 
	C354.077362,243.103943 353.026276,248.262695 352.152008,253.450760 
	C351.432098,257.723083 345.162628,261.197205 337.396271,258.279480 
	C341.290649,242.089905 345.220184,225.754135 349.232269,209.075256 
	C347.434052,208.489731 345.816437,207.962997 343.228729,207.120407 
	C345.453308,205.099777 347.235077,203.647339 348.809204,201.996887 
	C349.982849,200.766327 351.437378,199.415726 351.816864,197.883347 
	C353.400787,191.487076 354.404572,184.945450 356.034302,178.562622 
	C358.463135,169.050079 361.259979,159.631897 363.863434,150.163452 
	C365.681000,143.553253 371.114716,145.469254 376.666382,144.605637 
	C372.028076,162.390335 367.576111,179.460403 362.863647,197.529404 
	C373.985657,196.970627 383.906281,196.576340 393.800476,195.831360 
	C394.922302,195.746887 396.479828,193.849686 396.843658,192.521423 
	C399.344574,183.390991 401.452972,174.153046 403.954468,165.022781 
	C405.313568,160.062180 406.914490,155.124390 408.934753,150.402390 
	C410.486542,146.775253 416.565735,144.117661 419.994263,145.351639 
	C420.895996,145.676208 421.825256,147.983597 421.566864,149.111191 
	C420.520386,153.678223 419.096802,158.166260 417.663177,162.635574 
	C414.841980,171.430481 411.921448,180.193512 409.041687,188.969620 
	C408.341278,191.104156 407.639648,193.238297 406.857758,195.618729 
	C410.528229,196.714432 413.997101,197.749924 417.546753,198.809555 
	C416.570251,200.632568 416.011627,201.940964 415.224731,203.093491 
	C413.078644,206.236877 411.341400,210.090164 406.186523,208.063507 
	C405.499237,207.793289 403.490204,208.886780 403.303497,209.646286 
	C401.080566,218.688416 398.970245,227.762619 397.073242,236.878937 
	C395.733276,243.318176 394.763977,249.834534 393.230042,256.501404 
M384.670868,204.830505 
	C382.893677,204.830505 381.116486,204.830505 378.603790,204.830505 
	C382.324707,210.692215 385.632721,215.903412 389.661926,222.250732 
	C391.212311,216.135925 392.562500,210.810745 394.078766,204.830490 
	C390.871796,204.830490 388.233582,204.830490 384.670868,204.830505 
z"/>
<path fill="white" opacity="1.000000" stroke="none" 
	d="
M476.804077,208.859558 
	C479.334717,209.126770 481.478424,209.241409 485.085571,209.434326 
	C468.480713,225.267212 470.090210,242.962982 476.958954,261.816315 
	C474.179962,262.705200 470.615997,263.849579 467.049133,264.984741 
	C463.407898,266.143585 461.634338,263.922974 461.227386,260.990417 
	C459.670166,249.768219 459.253784,238.549179 462.605774,227.490768 
	C463.129425,225.763245 463.179840,223.884674 463.379639,222.068298 
	C463.718201,218.991486 462.221344,217.414627 459.205444,217.384171 
	C453.214661,217.323624 447.213226,217.173950 441.238678,217.488495 
	C439.809875,217.563705 437.624054,219.056442 437.227692,220.341675 
	C434.923157,227.814575 432.565765,235.330078 431.135834,243.000732 
	C428.641388,256.381958 421.800903,257.753204 409.438354,258.801208 
	C414.725494,246.242996 420.022766,233.660706 425.641815,220.314117 
	C420.160980,220.314117 416.247711,220.314117 412.334442,220.314117 
	C412.031372,219.943390 411.728302,219.572662 411.425232,219.201935 
	C412.870056,217.792175 414.096802,215.963776 415.810883,215.070786 
	C418.380524,213.732071 421.235413,212.804016 424.072327,212.148773 
	C427.916412,211.260880 429.424622,208.883301 430.476105,205.238831 
	C432.463501,198.350281 434.860168,191.553253 437.531006,184.896408 
	C439.881134,179.038956 442.561310,173.273880 445.585480,167.735458 
	C451.438843,157.015747 459.254822,148.066116 470.844971,143.307388 
	C477.570618,140.545975 484.027802,144.339630 484.296356,151.637146 
	C484.510712,157.461884 483.098022,163.346237 482.411041,169.204544 
	C482.102295,171.837250 481.892853,174.485229 481.481995,177.101715 
	C479.826874,187.642029 478.110748,198.172760 476.804077,208.859558 
M446.641388,208.003479 
	C452.920258,208.003479 459.199097,208.003479 465.678497,208.003479 
	C466.137970,205.348404 466.509827,203.086380 466.923370,200.832031 
	C468.048096,194.701141 469.121338,188.559677 470.342438,182.447876 
	C472.066345,173.819229 474.022247,165.234787 475.593506,156.579636 
	C475.901306,154.883987 475.109253,151.482193 474.480957,151.396881 
	C472.334167,151.105347 469.296234,151.177124 467.933075,152.493042 
	C464.065460,156.226547 460.064728,160.219574 457.566711,164.886673 
	C453.203003,173.039368 449.635437,181.660919 446.293488,190.302307 
	C444.156097,195.829102 443.023499,201.744476 441.285919,208.046005 
	C443.408569,208.046005 444.546417,208.046005 446.641388,208.003479 
z"/>
<path fill="white" opacity="1.000000" stroke="none" 
	d="
M307.156494,185.745529 
	C311.709412,191.821777 316.826874,197.142532 320.473450,203.330139 
	C325.753326,212.289108 326.270081,222.025681 323.570282,232.310745 
	C321.649536,239.627869 318.592377,245.940720 313.850952,251.692261 
	C306.790497,260.256897 291.069122,263.169586 282.503571,256.197845 
	C277.435486,252.072754 272.600281,238.880280 274.991180,232.957138 
	C276.438446,229.371719 283.137360,226.483734 289.755249,226.851593 
	C289.458618,228.764297 289.657623,230.906372 288.794159,232.456726 
	C285.026245,239.222061 289.144165,244.275345 292.293274,249.424240 
	C294.099609,252.377716 301.591644,251.947189 304.994263,249.224716 
	C312.529846,243.195328 314.703979,235.196442 314.526886,225.898788 
	C314.348633,216.538910 309.606201,209.521164 304.412567,202.398727 
	C299.448761,195.591492 293.905457,188.845886 290.721832,181.197052 
	C287.120239,172.544022 289.236877,163.796478 295.501282,156.109253 
	C303.725433,146.017136 313.947937,141.262161 326.896179,142.490463 
	C340.444977,143.775726 345.086060,157.898819 342.039520,168.040771 
	C341.262970,170.625793 340.405487,173.380997 338.824402,175.486801 
	C336.067688,179.158386 333.958313,179.475189 325.607208,178.903458 
	C327.196747,174.958588 328.606781,171.139740 330.260620,167.429565 
	C332.758362,161.826263 332.009491,154.288757 328.261963,150.403732 
	C327.564667,149.680878 326.453278,148.955872 325.513672,148.929794 
	C314.863556,148.634186 296.422058,161.056473 302.072327,176.617416 
	C303.202881,179.731033 305.372986,182.467194 307.156494,185.745529 
z"/>
<path fill="white" opacity="1.000000" stroke="none" 
	d="
M553.883545,167.960876 
	C556.007141,162.575455 556.687805,156.808411 561.740906,153.491669 
	C562.594727,152.931259 563.538696,152.508041 564.440979,152.021423 
	C564.856934,153.010483 565.714417,154.043976 565.620056,154.981659 
	C564.764038,163.485977 561.007019,170.300446 552.613464,175.804871 
	C553.144409,172.619415 553.498474,170.495117 553.883545,167.960876 
z"/>
<path fill="#0F1719" opacity="1.000000" stroke="none" 
	d="
M385.133118,204.830505 
	C388.233582,204.830490 390.871796,204.830490 394.078766,204.830490 
	C392.562500,210.810745 391.212311,216.135925 389.661926,222.250732 
	C385.632721,215.903412 382.324707,210.692215 378.603790,204.830505 
	C381.116486,204.830505 382.893677,204.830505 385.133118,204.830505 
z"/>
<path fill="#0F1415" opacity="1.000000" stroke="none" 
	d="
M446.162842,208.024750 
	C444.546417,208.046005 443.408569,208.046005 441.285919,208.046005 
	C443.023499,201.744476 444.156097,195.829102 446.293488,190.302307 
	C449.635437,181.660919 453.203003,173.039368 457.566711,164.886673 
	C460.064728,160.219574 464.065460,156.226547 467.933075,152.493042 
	C469.296234,151.177124 472.334167,151.105347 474.480957,151.396881 
	C475.109253,151.482193 475.901306,154.883987 475.593506,156.579636 
	C474.022247,165.234787 472.066345,173.819229 470.342438,182.447876 
	C469.121338,188.559677 468.048096,194.701141 466.923370,200.832031 
	C466.509827,203.086380 466.137970,205.348404 465.678497,208.003479 
	C459.199097,208.003479 452.920258,208.003479 446.162842,208.024750 
z"/>
</svg>